<svg width="539" height="640" viewBox="0 0 539 640" fill="none" xmlns="http://www.w3.org/2000/svg">
<path fill-rule="evenodd" clip-rule="evenodd" d="M112.053 302.933C110.151 304.322 96.6889 310.421 92.9911 312.404C90.0962 313.957 75.1635 321.03 72.4226 319.57L71.7157 321.115L55.7033 322.169L52.7437 322.822L47.6532 326.848C47.6532 338.867 38.8521 339.618 37.1263 345.044C41.2897 344.11 45.3391 336.206 48.8917 336.206C50.8983 336.206 52.6072 338.465 52.6072 340.365C52.6072 345.37 50.1303 347.799 50.1303 351.282V354.402C50.1303 355.567 50.6203 355.543 51.3687 356.481C51.3687 364.804 53.159 371.261 55.4462 378.012C56.4477 380.969 60.6573 396.479 60.6573 398.591V399.111C60.6573 406.806 50.7494 409.075 50.7494 413.668C50.7494 417.201 57.5611 420.025 57.5611 430.304V434.463H58.7992V423.546C58.7992 422.695 59.1701 421.986 60.0379 421.986C72.0199 421.986 71.3297 437.583 80.4724 437.583H93.4762C97.4856 437.583 100.199 436.261 100.288 432.904C91.7039 432.904 84.3727 431.028 82.5645 424.909C80.7519 418.775 78.3832 412.9 76.1571 406.893C73.8094 400.557 70.8041 397.336 69.9268 389.249C69.1981 382.533 67.4684 374.593 67.4684 367.918L67.731 366.619L70.5646 364.279C67.0159 359.83 65.721 362.195 65.6322 353.864C65.5539 346.544 63.6028 348.717 67.8791 342.269C73.8581 333.255 69.4301 331.074 82.9341 325.275C94.4467 320.332 126.465 314.924 134.344 309.172C130.955 304.687 135.082 304.283 127.533 298.774C120.07 298.774 117.413 301.885 112.052 302.933H112.053Z" fill="#695623"/>
<path fill-rule="evenodd" clip-rule="evenodd" d="M70.5654 155.811C73.0851 154.997 71.1847 156.062 71.1847 153.212V152.172C71.1847 150.385 74.0286 149.195 75.5193 148.533C87.5924 141.489 98.4306 138.57 98.6858 120.765L103.385 125.138C104.428 124.529 104.623 125.063 104.623 123.578V122.539C104.623 115.708 97.4337 109.022 89.7615 109.022H77.377C76.5534 110.735 72.0332 110.543 69.0546 111.392C65.9282 112.283 63.5704 112.857 61.2715 114.216C58.0665 116.11 51.9886 121.34 51.9886 125.658V129.817C51.9886 134.065 58.3529 139.478 60.6881 142.269C62.2843 144.176 62.101 146.606 63.9611 149.399C65.8578 152.248 66.7541 153.362 68.7079 155.811H70.5654Z" fill="#ECB71D"/>
<path fill-rule="evenodd" clip-rule="evenodd" d="M47.0342 175.567C52.9914 178.213 55.7033 177.248 55.7033 185.445L57.4982 185.334L65.6109 185.965C70.2004 183.287 76.8696 181.74 84.1828 181.282C87.7094 181.06 93.037 180.75 95.9382 180.753C102.026 180.76 102.503 179.726 107.23 179.764L108.957 176.087L105.861 174.007V177.127C104.472 177.398 104.437 177.647 102.765 177.647H94.7146C91.1092 177.647 85.7955 175.655 81.0915 175.567C81.0915 165.803 77.124 165.538 75.5185 160.491L71.1839 158.931C63.5612 158.931 59.7607 158.771 54.6987 161.207C51.7653 162.618 46.4148 166.984 46.4148 170.368V172.448C46.4148 173.613 46.9051 173.589 47.7064 174.555L47.0342 175.567ZM96.5734 167.769V164.13C94.3961 161.4 91.6657 158.24 86.6656 157.891L96.5734 167.769Z" fill="#1778B8"/>
<path fill-rule="evenodd" clip-rule="evenodd" d="M54.4647 243.157L57.5608 246.796C64.9498 250.95 72.7794 256.154 85.4246 256.154H95.9515C97.3398 256.154 97.3108 255.743 98.4283 255.114L94.7208 250.438L98.4283 244.197V241.597C97.3108 242.226 97.3398 242.637 95.9515 242.637H90.3785C81.052 242.637 73.662 236.414 68.0862 233.279L68.7056 232.24H66.2287C64.8686 234.397 57.9245 237.665 54.4634 243.157H54.4647Z" fill="#1778B8"/>
<path fill-rule="evenodd" clip-rule="evenodd" d="M121.342 293.581L131.969 297.544L127.534 298.78C135.083 304.289 130.956 304.693 134.345 309.178C137.865 308.489 151.684 304.127 151.684 301.379V295.141C151.684 290.563 142.571 282.87 139.918 279.544C137.985 280.2 131.63 292.36 121.961 292.541L121.342 293.581ZM57.5626 246.792L54.4665 243.153L52.6087 247.832V254.071L47.6548 258.749C44.785 262.347 35.9284 279.101 34.651 283.703C37.3019 284.297 36.5088 284.449 36.5088 287.342C42.4665 290.691 39.9355 288.419 44.5614 288.884L62.5163 290.981C63.1189 293.153 63.6628 296.18 66.8509 296.18L69.7327 296.068L71.1855 294.1C79.918 294.1 79.8585 290.461 87.9047 290.461H90.3816C93.6243 290.461 96.7662 294.1 100.289 294.1C105.948 294.1 120.938 291.574 124.572 290.053C128.161 288.551 136.714 280.03 136.823 275.905C133.286 271.469 125.462 266.714 119.276 264.123C115.145 262.392 112.683 261.611 108.26 260.374C99.2027 257.841 103.359 257.88 98.4314 255.109C97.3139 255.738 97.3429 256.149 95.9546 256.149H85.4276C72.7812 256.149 64.9515 250.946 57.5639 246.791L57.5626 246.792ZM24.7427 210.401C27.1014 206.274 25.9893 203.823 30.935 201.043H32.7928C33.1331 200.616 42.2833 193.232 43.2039 192.628C45.4274 191.169 46.9199 189.715 48.877 188.552C51.2804 187.125 53.7052 186.905 55.7041 185.446C55.7041 177.25 52.9922 178.215 47.0349 175.568C41.8469 182.073 17.3129 196.137 17.3129 205.202V206.762C17.3129 208.293 23.3061 210.079 24.7437 210.401L24.7427 210.401ZM27.2197 210.92L38.3658 211.44H39.6042L63.7539 210.401C64.8681 209.588 65.6117 209.779 65.6117 208.321V206.241C65.6117 204.992 64.6084 204.713 63.7539 203.642C55.2175 203.642 38.7662 204.239 33.4108 202.083L31.1262 201.937L27.2187 210.92H27.2197ZM65.612 185.967C68.4961 187.741 77.598 199.622 77.9966 203.643H69.9465L72.4236 209.361L81.9285 212.631C81.7119 218.065 83.4082 216.371 79.9791 220.904C78.6242 222.695 77.9479 226.299 75.5195 227.037V228.077H76.758L68.7081 232.236L68.0888 233.276C73.6646 236.41 81.0546 242.634 90.3811 242.634H95.9541C97.3424 242.634 97.3134 242.222 98.4309 241.594C102.14 235.104 110.816 219.532 110.816 210.921L110.974 201.033L110.196 191.686C111.881 189.574 115.15 188.43 115.15 185.447V182.848C115.15 179.522 111.628 177.276 108.958 176.089L107.231 179.766C102.504 179.729 102.027 180.763 95.9392 180.756C93.0381 180.752 87.7104 181.063 84.1838 181.284C76.8706 181.743 70.2014 183.29 65.612 185.967V185.967ZM75.5195 148.536L73.6618 156.855L71.185 158.934L75.5195 160.494C77.125 165.541 81.0925 165.807 81.0925 175.57C85.7965 175.658 91.1102 177.65 94.7156 177.65H102.766C104.438 177.65 104.473 177.402 105.862 177.13V174.011L96.5734 167.772L86.6656 157.894L86.6317 151.208L91.6195 152.695C92.5178 152.191 100.195 143.344 101.131 141.965C103.586 138.347 103.385 130.477 103.385 125.142L98.686 120.769C98.4309 138.573 87.5926 141.493 75.5195 148.536ZM55.7044 322.177L71.7168 321.123L72.4236 319.577L79.8541 294.624C75.6943 294.702 76.2765 296.184 73.0427 296.184H70.5656C70.2835 297.071 69.8464 298.263 68.7081 298.263C66.1425 298.263 62.5158 297.805 62.5158 295.664V293.584L55.7044 292.024V322.178V322.177Z" fill="#020202"/>
<path fill-rule="evenodd" clip-rule="evenodd" d="M34.65 283.712L33.938 284.726L35.8887 286.311L35.2693 288.911C36.0948 289.945 39.0249 292.03 40.8423 292.03C41.2122 292.03 42.127 291.312 42.6939 291.037L55.7039 292.03L62.5153 293.59V295.669C62.5153 297.811 66.142 298.269 68.7076 298.269C69.8459 298.269 70.283 297.076 70.5651 296.189H73.0422C76.2759 296.189 75.6938 294.707 79.8536 294.629C81.2709 293.005 85.2711 292.55 88.5228 292.55C93.5465 292.55 94.0806 296.189 105.861 296.189L120.136 293.025L121.342 293.59L121.961 292.55C131.63 292.369 137.985 280.208 139.918 279.553L136.822 275.914C136.713 280.039 128.16 288.56 124.571 290.062C120.937 291.583 105.947 294.109 100.288 294.109C96.7651 294.109 93.6233 290.47 90.3805 290.47H87.9037C79.8575 290.47 79.917 294.109 71.1844 294.109L69.7317 296.077L66.8499 296.189C63.6618 296.189 63.1179 293.162 62.5153 290.99L44.5604 288.892C39.9345 288.428 42.4655 290.7 36.5077 287.351C36.5077 284.458 37.3009 284.306 34.65 283.712Z" fill="#075252"/>
<path fill-rule="evenodd" clip-rule="evenodd" d="M63.7534 203.641C64.6079 204.712 65.6112 204.99 65.6112 206.24V208.32C65.6112 209.778 64.8676 209.586 63.7534 210.399L64.3725 211.439H67.4687C70.5048 211.439 70.3115 210.001 72.4229 209.36L69.9458 203.641H63.7534Z" fill="#F5B393"/>
<path fill-rule="evenodd" clip-rule="evenodd" d="M70.5654 155.811L73.6615 156.851L75.5193 148.533C74.0286 149.195 71.1847 150.385 71.1847 152.172V153.212C71.1847 156.063 73.0851 154.997 70.5654 155.811Z" fill="#F8EBF1"/>
<path fill-rule="evenodd" clip-rule="evenodd" d="M30.936 222.362H34.0322C31.5798 224.152 28.5655 225.114 28.4589 229.121L27.8399 243.677L30.7417 231.685C31.5017 232.038 32.7938 232.567 32.7938 233.28C32.7938 234.577 29.0041 243.273 28.4589 245.237L27.8399 248.876L34.0379 235.674L34.6513 235.879C35.0607 237.354 35.2706 236.768 35.2706 237.959C35.2706 239.087 28.8796 248.786 27.8399 250.436H29.0783L36.1443 241.219L37.1281 241.078L37.7695 243.673L29.6976 250.956L28.4589 253.035L38.7903 246.579L38.9861 250.956L28.4589 254.075L27.8399 255.115L39.5762 253.418L39.6052 257.194L27.8399 256.155V256.674L39.5446 260.442L39.6052 263.953L27.8399 257.714V258.754C29.4797 259.483 38.3668 265.874 38.3668 267.072C38.3668 269.03 37.9592 268.055 37.7475 270.192L29.6976 261.354L29.0783 261.873C29.865 263.122 36.509 271.873 36.509 272.271C36.509 274.229 36.1015 273.254 35.89 275.39L28.4589 262.393C27.0858 264.25 33.9742 273.887 33.4129 279.549H32.1745L27.4639 264.417L30.317 281.629L29.5495 283.32L32.7938 286.308H30.317H35.89L33.9393 284.722L34.6513 283.708C35.9287 279.105 44.7853 262.352 47.655 258.755C47.655 252.784 47.5881 247.328 47.057 242.101C46.5937 237.539 42.7014 230.424 42.7014 228.602V227.042H41.463L39.6052 211.446H38.3668L39.1417 223.398L34.5856 221.983L30.936 222.363V222.362Z" fill="#FBE5C9"/>
<path fill-rule="evenodd" clip-rule="evenodd" d="M24.7429 210.399C23.0689 216.432 24.0335 226.842 21.2002 231.858C18.4456 236.735 16.6931 245.485 16.6931 252.509V255.628C16.6931 261.806 18.1902 268.944 19.7695 273.84C20.4024 275.803 22.4668 279.014 23.6896 280.947C25.6723 284.08 29.0811 284.886 30.3162 286.301H32.793L29.5487 283.313L30.3162 281.622C27.1212 280.54 27.7161 272.675 27.0968 269.248C26.4041 265.415 24.7429 261.568 24.7429 256.668V250.949C24.7429 249.024 25.7213 242.077 26.2288 239.719C26.8258 236.944 25.8874 229.985 28.4582 229.114C28.5647 225.107 31.579 224.145 34.0314 222.356H30.9353L25.9973 224.459L27.22 210.918L31.1275 201.935L33.4121 202.08L32.793 201.041H30.9353C25.9896 203.821 27.1017 206.271 24.7429 210.399Z" fill="#FBCEB3"/>
<path fill-rule="evenodd" clip-rule="evenodd" d="M30.3175 281.622L27.4644 264.41L32.175 279.542H33.4134C33.9747 273.88 27.0863 264.243 28.4595 262.386L29.0788 261.866L29.6981 261.346L27.8404 258.747V255.108L28.4595 254.068V253.028L29.6981 250.949L29.0788 250.429H27.8404V248.869L28.4595 245.23L27.8404 243.67L28.4595 229.114C25.8887 229.985 26.827 236.944 26.23 239.719C25.7226 242.077 24.7442 249.023 24.7442 250.949V256.667C24.7442 261.568 26.4053 265.415 27.0981 269.248C27.7174 272.675 27.1225 280.539 30.3175 281.622Z" fill="#ED9150"/>
<path fill-rule="evenodd" clip-rule="evenodd" d="M30.936 222.362L34.5858 221.974L39.1417 223.397L38.3665 211.439L27.2195 210.92L25.9978 224.453L30.936 222.362Z" fill="#FBFCFB"/>
<path fill-rule="evenodd" clip-rule="evenodd" d="M28.4592 253.026V254.061L38.9851 250.958L38.79 246.583L28.4592 253.026Z" fill="#ED4C2B"/>
<path fill-rule="evenodd" clip-rule="evenodd" d="M27.8381 255.117V256.151L39.6037 257.185L39.5754 253.414L27.8381 255.117Z" fill="#ED4C2B"/>
<path fill-rule="evenodd" clip-rule="evenodd" d="M29.6963 261.344L37.7462 270.182C37.9579 268.046 38.3655 269.021 38.3655 267.063C38.3655 265.865 29.4784 259.473 27.8386 258.745L29.6963 261.344Z" fill="#ED4C2B"/>
<path fill-rule="evenodd" clip-rule="evenodd" d="M27.8381 257.702L39.6037 263.952L39.5446 260.439L27.8381 256.668V257.702Z" fill="#ED4C2B"/>
<path fill-rule="evenodd" clip-rule="evenodd" d="M27.8381 248.867V250.427C28.8778 248.777 35.2688 239.078 35.2688 237.95C35.2688 236.759 35.0589 237.345 34.6495 235.87L34.036 235.665L27.8381 248.867Z" fill="#ED4C2B"/>
<path fill-rule="evenodd" clip-rule="evenodd" d="M27.8381 243.674L28.4571 245.234C29.0023 243.27 32.792 234.574 32.792 233.277C32.792 232.563 31.4999 232.035 30.7399 231.682L27.8381 243.674Z" fill="#EB752B"/>
<path fill-rule="evenodd" clip-rule="evenodd" d="M29.0778 250.441L29.6963 250.958L37.7685 243.674L37.1268 241.067L36.1438 241.218L29.0778 250.441Z" fill="#ED4C2B"/>
<path fill-rule="evenodd" clip-rule="evenodd" d="M29.0778 261.861L28.4584 262.381L35.8894 275.378C36.1009 273.242 36.5085 274.217 36.5085 272.259C36.5085 271.861 29.8645 263.11 29.0778 261.861Z" fill="#ED4C2B"/>
<path fill-rule="evenodd" clip-rule="evenodd" d="M222.281 206.703C221.781 211.749 218.07 216.154 218.566 222.819L219.185 234.776L218.566 236.856V242.575C218.566 244.34 219.162 247.961 217.946 248.813V251.933L217.327 252.972L214.85 295.083C217.719 295.644 222.652 299.258 227.854 297.162V299.762L228.473 296.643L227.854 286.245C231.467 285.021 229.553 278.516 231.569 275.847L235.285 257.132L239 238.416L239.619 236.856L243.335 224.899L246.549 218.183L246.772 217.57L255.1 221.78C266.267 228.058 275.426 247.688 282.137 258.868C286.079 265.434 290.578 272.315 293.865 279.175C297.721 287.223 302.734 290.665 305.258 299.763C312.041 299.763 310.902 297.599 315.073 296.631L316.404 291.444C314.169 287.898 309.516 281.736 308.49 278.334C307.354 274.563 304.936 266.09 303.321 262.917C301.95 260.222 290.515 234.928 290.397 233.738C283.788 227.889 284.025 236.322 281.598 222.409C280.767 217.644 277.61 212.554 273.678 210.344L273.58 210.893L229.154 205.329C227.866 205.511 224.702 206.659 222.282 206.704L222.281 206.703Z" fill="#3965A6"/>
<path fill-rule="evenodd" clip-rule="evenodd" d="M234.665 165.112L227.235 198.904L252.004 201.504L269.342 203.064L270.58 200.984L267.154 184.908C266.593 179.724 272.438 166.612 272.438 158.353C271.727 156.552 270.036 158.699 266.885 159.409C264.131 160.029 262.513 160.518 259.572 161.069C253.632 162.182 249.76 161.438 242.251 161.438C240.796 160.376 238.79 160.539 236.806 159.675C234.524 158.682 233.446 157.124 232.808 157.313L234.665 165.112V165.112Z" fill="#020202"/>
<path fill-rule="evenodd" clip-rule="evenodd" d="M201.227 253.5C188.848 253.5 189.459 251.122 189.461 260.779C189.463 266.705 188.842 271.154 188.842 277.415C188.842 287.824 188.586 300.78 187.604 310.686C188.884 313.349 197.729 310.527 200.049 310.218C203.562 309.749 210.518 309.083 212.992 308.087L214.85 295.09L217.327 252.979L203.699 253.427L203.703 257.138H201.227V253.499V253.5Z" fill="#039EC6"/>
<path fill-rule="evenodd" clip-rule="evenodd" d="M245.191 122.481C242.683 124.904 242.304 126.8 237.141 127.16C235.721 128.745 234.597 129.419 233.426 132.359C232.149 133.593 230.949 138.809 230.949 141.197V143.277C230.949 144.295 233.909 147.009 234.664 147.956L240.857 151.595C247.453 150.304 254.003 148.695 258.195 145.356C261.828 142.743 267.115 140.55 270.987 136.31C275.398 133.668 279.945 126.595 275.533 118.842C271.954 118.842 261.291 118.986 261.291 116.243L261.153 113.106L261.91 108.445C264.406 108.933 265.004 110.004 267.483 110.004H268.722C270.149 110.004 270.579 109.643 270.579 108.445V106.365C273.901 105.621 277.391 99.5423 277.391 96.4873V94.9278C277.391 93.1356 276.933 92.9147 276.772 91.2887L278.103 91.2626L277.391 90.2489L276.152 89.729C273.309 91.346 269.289 91.8084 265.006 91.8084H261.291C259.619 91.8084 259.821 91.2777 258.654 90.9482L256.337 87.1295C255.984 89.5016 254.958 90.1431 253.775 93.8974L255.099 103.766C255.648 107.293 252.491 111.73 250.89 113.749C247.532 117.984 246.762 120.932 245.191 122.481Z" fill="#050505"/>
<path fill-rule="evenodd" clip-rule="evenodd" d="M212.992 308.084C212.992 311.499 210.803 323.805 210.051 327.449C208.777 333.624 207.706 340.479 206.859 346.604C205.611 355.633 204.23 356.276 199.742 362.463C196.757 366.578 193.233 372.16 188.842 374.628V375.668H190.7C201.166 375.668 204.838 373.052 209.745 368.263C214.972 363.161 218.32 361.519 219.185 352.793C217.222 350.333 214.85 349.912 214.85 345.515V341.356C214.85 329.18 225.996 316.055 225.996 306.524L227.809 305.908L227.854 299.766V297.166C222.652 299.262 217.719 295.648 214.85 295.087L212.992 308.084V308.084Z" fill="#050505"/>
<path fill-rule="evenodd" clip-rule="evenodd" d="M305.254 299.766C308.594 311.803 314.76 322.545 319.574 333.494C325.993 348.092 325.069 355.075 325.069 374.631L326.307 378.27H329.403C333.13 378.27 337.453 375.4 337.453 372.031C337.453 365.372 333.56 353.649 331.88 347.597C327.398 340.486 327.513 327.68 324.362 319.077C322.91 315.113 322.695 308.438 321.492 304.331C320.09 299.544 317.502 295.422 316.4 291.45L315.069 296.637C310.897 297.605 312.036 299.768 305.254 299.768V299.766Z" fill="#050505"/>
<path fill-rule="evenodd" clip-rule="evenodd" d="M275.532 118.842C284.209 134.025 255.077 148.812 240.856 151.594C238.792 150.381 236.728 149.168 234.664 147.955C233.909 147.008 230.948 144.294 230.948 143.276V141.196C230.948 138.809 232.148 133.592 233.425 132.358C233.219 130.799 233.013 129.239 232.806 127.679H227.233C222.145 130.54 221.93 136.911 221.022 143.26C220.639 145.939 220.106 149.97 219.821 152.65C219.524 155.448 217.325 160.877 217.325 160.952V161.992C217.325 163.157 217.815 163.133 218.564 164.071V167.71C218.765 167.428 218.966 167.145 219.166 166.863L226.614 167.19C230.321 164.91 229.107 159.638 230.329 155.233C231.155 155.926 231.98 156.619 232.806 157.313C233.445 157.123 234.522 158.681 236.805 159.674C244.114 162.856 251.444 162.591 259.571 161.068C262.511 160.517 264.13 160.029 266.883 159.408C270.079 158.689 271.924 158.949 273.854 156.705C275.033 152.055 276.211 147.406 277.39 142.756C278.247 141.622 278.156 138.597 279.867 138.597C283.983 138.597 294.34 151.082 295.348 154.713H297.825C299.314 154.713 299.645 155.555 300.921 156.273C304.43 154.887 307.939 153.5 311.448 152.114C310.719 145.383 308.561 144.657 303.902 139.214C301.758 136.709 300.205 133.771 298.197 131.006C295.551 127.364 288.933 117.63 282.327 118.204C280.062 118.416 277.797 118.629 275.533 118.841L275.532 118.842Z" fill="#BB3C97"/>
<path fill-rule="evenodd" clip-rule="evenodd" d="M222.281 206.703C224.7 206.658 227.865 205.509 229.152 205.328L273.579 210.891L273.676 210.342C277.609 212.553 280.766 217.642 281.597 222.408C284.023 236.321 283.787 227.887 290.395 233.736L293.492 233.217C293.883 232.726 296.588 229.878 296.588 229.578C296.588 226.18 295.386 223.609 293.492 221.779C286.499 217.848 283.246 214.228 282.345 205.143C280.783 203.635 277.351 199.944 274.296 199.944C273.097 199.944 272.281 200.651 270.58 200.984L269.342 203.064V204.103H265.626C262.286 204.103 253.831 202.478 252.003 201.504L227.234 198.905L222.281 206.703H222.281Z" fill="#6CAFD9"/>
<path fill-rule="evenodd" clip-rule="evenodd" d="M300.916 156.274C302.819 159.293 308.347 163.233 308.347 166.672V168.751C308.347 170.352 295.348 188.671 293.486 191.625L298.439 195.264C302.307 190.415 319.493 173.718 319.493 167.71C319.493 166.539 312.45 153.712 311.443 152.113L300.916 156.273V156.274Z" fill="#050505"/>
<path fill-rule="evenodd" clip-rule="evenodd" d="M218.564 167.712C218.33 176.564 213.868 182.347 211.88 189.134C210.292 194.556 206.33 205.723 206.18 211.381L206.291 212.687L209.895 213.981H210.515C212.059 208.415 216.99 197.663 219.617 191.471C221.896 186.101 226.443 173.647 226.615 167.192L219.167 166.865L218.564 167.712V167.712Z" fill="#050707"/>
<path fill-rule="evenodd" clip-rule="evenodd" d="M235.284 257.121L236.523 269.08L250.766 265.977L239 238.416L235.284 257.121Z" fill="#F57E21"/>
<path fill-rule="evenodd" clip-rule="evenodd" d="M184.507 279.488L182.65 304.963C185.976 305.709 185.812 308.517 187.604 310.682C188.585 300.775 188.842 287.819 188.842 277.411C188.842 271.149 189.463 266.701 189.461 260.774C189.459 251.118 188.847 253.496 201.226 253.496V252.456H186.984L184.507 279.489V279.488Z" fill="#09758D"/>
<path fill-rule="evenodd" clip-rule="evenodd" d="M188.842 374.626L181.549 378.45L181.412 379.825C182.907 380.117 190.786 381.385 191.939 381.385H195.035C199.481 381.385 198.606 379.897 202.466 379.825C203.083 377.883 208.026 374.72 209.985 371.582C211.519 369.127 214.964 365.036 218.565 364.229V375.666H219.804V372.027C219.804 368.961 220.023 367.077 220.452 364.253C220.823 361.799 223.519 360.594 223.519 359.03V358.51C223.519 355.906 221.075 353.854 219.185 352.791C218.32 361.517 214.972 363.159 209.745 368.261C204.838 373.05 201.166 375.666 190.7 375.666H188.842V374.626Z" fill="#D9E475"/>
<path fill-rule="evenodd" clip-rule="evenodd" d="M184.507 279.488L186.984 252.445V249.859L177.523 251.949L181.412 279.488H184.507Z" fill="#F38429"/>
<path fill-rule="evenodd" clip-rule="evenodd" d="M325.068 374.626L323.633 385.003C329.161 386.067 331.96 383.562 335.329 381.162C337.736 379.448 342.407 376.229 342.407 373.067V371.507C342.407 370.696 337.701 363.908 336.867 360.561C335.785 356.22 336.184 350.659 333.738 347.593H331.88C333.559 353.645 337.453 365.368 337.453 372.027C337.453 375.395 333.129 378.265 329.403 378.265H326.307L325.068 374.626V374.626Z" fill="#D9E468"/>
<path fill-rule="evenodd" clip-rule="evenodd" d="M231.57 275.847L232.807 296.124L237.799 290.521L238.382 290.931L238.482 288.84L236.523 269.08L235.284 257.121L231.57 275.847Z" fill="#0E9247"/>
<path fill-rule="evenodd" clip-rule="evenodd" d="M284.823 194.745C288.44 194.493 287.829 193.186 289.777 193.186H291.634C291.318 196.376 287.753 197.865 283.585 197.865L284.823 194.745ZM282.965 204.103C283.364 203.093 289.349 202.61 291.765 201.613C295.052 200.258 295.559 198.107 298.446 196.825C298.446 204.801 291.416 203.66 286.681 206.183L287.3 206.703C294.09 206.703 300.304 204.8 300.304 199.424C300.304 197.802 299.171 196.416 298.446 195.265L293.492 191.626C287.349 191.626 281.727 193.714 281.727 198.385V201.504C281.727 203.2 282.047 203.216 282.965 204.103Z" fill="#D9E468"/>
<path fill-rule="evenodd" clip-rule="evenodd" d="M201.845 221.781V224.9L202.465 226.459V226.979L203.084 231.138L203.703 235.817C205.808 238.361 205.303 241.778 209.276 242.056C210.076 239.539 211.753 240.318 211.753 238.417V237.897C211.753 236.104 211.295 235.884 211.134 234.258L210.514 230.099L209.276 225.94L206.18 222.82L205.458 222.387L207.418 219.701H202.465L201.845 221.781Z" fill="#0A0A0A"/>
<path fill-rule="evenodd" clip-rule="evenodd" d="M239 238.416L250.766 265.977L255.101 262.335L253.892 261.732L254.577 261.56L242.096 237.382L239.619 236.865L239 238.416Z" fill="#AC5926"/>
<path fill-rule="evenodd" clip-rule="evenodd" d="M242.096 237.382L254.577 261.56L253.892 261.732L255.101 262.335L258.669 260.568L259.362 260.525L244.537 236.735L242.096 237.382Z" fill="#D26C28"/>
<path fill-rule="evenodd" clip-rule="evenodd" d="M211.134 234.257L212.992 243.615V252.453H202.465V246.215L203.703 235.817L203.084 231.138L201.226 246.735V257.132H203.703L203.699 253.421L217.326 252.973L217.945 251.933H214.23V241.536L213.634 236.854C213.342 235.211 213.386 235.68 212.992 234.257L211.753 232.178L211.134 230.618L210.515 230.098L211.134 234.257Z" fill="#0A8996"/>
<path fill-rule="evenodd" clip-rule="evenodd" d="M293.498 221.781C292.941 216.157 287.306 214.725 287.306 206.704L286.687 206.184L282.971 204.625L282.352 205.144C283.253 214.229 286.506 217.849 293.498 221.781Z" fill="#100E11"/>
<path fill-rule="evenodd" clip-rule="evenodd" d="M228.472 296.641L232.134 297.134L232.807 296.121L231.568 275.846C229.551 278.515 231.466 285.019 227.853 286.243L228.472 296.641Z" fill="#28AB52"/>
<path fill-rule="evenodd" clip-rule="evenodd" d="M199.99 217.105L199.37 218.664L199.103 220.972L201.847 223.343V221.783C200.883 221.241 199.99 221.094 199.99 219.704C199.99 218.014 200.526 219.311 201.228 217.105L208.61 215.865L208.659 217.105L210.472 216.488L211.262 219.157L209.897 219.184L208.535 218.248L206.176 218.208L204.324 218.144C203.129 218.144 203.222 217.98 202.467 217.624L201.014 219.591L202.467 219.704H208.659V220.743H209.897L209.86 221.692L206.182 222.823L209.278 225.942C211.646 224.611 212.374 221.387 212.374 218.144C212.374 217.144 210.986 214.73 210.516 213.985H209.897V215.025L204.294 214.106L199.99 217.105Z" fill="#D6E09C"/>
<path fill-rule="evenodd" clip-rule="evenodd" d="M194.415 248.286C191.572 248.286 187.818 248.11 186.984 249.845V252.445H201.226V246.726H200.607V248.286H194.415Z" fill="#28AB52"/>
<path fill-rule="evenodd" clip-rule="evenodd" d="M258.207 145.356C258.962 145.712 258.869 145.876 260.064 145.876C263.675 145.805 263.523 143.851 265.018 141.197C265.23 139.06 265.637 140.035 265.637 138.077C265.637 137.518 263.826 135.998 262.541 135.998H261.922C259.102 135.998 258.207 136.749 258.207 139.117V139.637C258.207 141.878 260.16 140.91 258.117 143.214C257.752 143.972 257.782 144.686 258.207 145.356ZM270.561 135.807C270.463 135.365 270.192 135.07 269.488 135.413C268.374 135.956 267.66 137.489 267.242 137.279C266.849 137.082 267.629 135.173 266.75 134.487C266.177 134.039 265.562 134.097 265.481 134.515C265.114 136.393 266.213 138.025 266.71 138.203C267.455 138.47 270.93 137.483 270.561 135.807ZM266.751 148.243C265.924 148.025 265.846 148.194 265.027 147.463C262.615 145.206 264.416 143.961 265.696 141.228C267.406 139.635 266.28 140.054 267.98 138.713C268.465 138.331 271.025 138.397 271.905 139.183C272.047 139.31 272.188 139.436 272.329 139.562C274.26 141.288 274.221 142.35 272.166 143.971C272.015 144.09 271.865 144.209 271.714 144.327C269.77 145.862 269.272 144.004 268.671 146.832C268.263 147.574 267.623 148.045 266.751 148.243Z" fill="#F3B812"/>
<path fill-rule="evenodd" clip-rule="evenodd" d="M282.975 204.104V204.624L286.691 206.183C291.426 203.661 298.456 204.802 298.456 196.826C295.569 198.108 295.062 200.259 291.775 201.614C289.359 202.611 283.374 203.094 282.975 204.104Z" fill="#BBD538"/>
<path fill-rule="evenodd" clip-rule="evenodd" d="M212.992 234.257H214.231L216.088 243.095L215.459 248.813L214.231 248.814V251.933H217.946V248.814C216.731 247.962 217.327 244.341 217.327 242.576V241.016C217.327 237.218 216.863 237.57 216.088 234.777C214.745 233.48 214.193 232.655 211.754 232.178L212.992 234.257Z" fill="#0E9247"/>
<path fill-rule="evenodd" clip-rule="evenodd" d="M212.992 248.803H203.085V246.217H202.466V252.445H212.992V248.803Z" fill="#28AB52"/>
<path fill-rule="evenodd" clip-rule="evenodd" d="M203.085 246.217V248.803H212.992V243.609L203.085 246.217Z" fill="#EB752B"/>
<path fill-rule="evenodd" clip-rule="evenodd" d="M194.415 248.286H200.607V246.726L197.511 247.246C197.433 244.325 196.272 244.353 196.272 241.527V237.888C196.272 233.234 199.014 233.196 201.845 231.13C196.961 231.471 194.415 235.405 194.415 239.968C194.415 243.386 195.653 244.003 195.622 247.688L194.415 248.286Z" fill="#E26C52"/>
<path fill-rule="evenodd" clip-rule="evenodd" d="M284.823 194.745L283.585 197.865C287.753 197.865 291.318 196.376 291.634 193.186H289.777C287.829 193.186 288.44 194.493 284.823 194.745Z" fill="#FBF5D8"/>
<path fill-rule="evenodd" clip-rule="evenodd" d="M201.845 221.781L202.465 219.701L201.012 219.589L202.465 217.621C203.22 217.978 203.127 218.141 204.322 218.141L206.174 218.206L208.533 218.245L209.895 219.181L209.771 218.245L208.657 217.102L208.608 215.862L201.226 217.102C200.524 219.308 199.987 218.011 199.987 219.701C199.987 221.091 200.881 221.239 201.845 221.781Z" fill="#6A4F65"/>
<path fill-rule="evenodd" clip-rule="evenodd" d="M269.346 203.063L252.007 201.504C253.835 202.477 262.29 204.103 265.63 204.103H269.346V203.063Z" fill="#3965A6"/>
<path fill-rule="evenodd" clip-rule="evenodd" d="M198.131 222.298V225.417L201.227 226.977H202.466V226.457C200 225.362 199.489 225.477 198.751 222.818C200.821 223.447 199.665 223.671 201.847 224.897V223.337L199.102 220.966L199.37 218.659L198.131 219.179V222.298Z" fill="#C8C8C8"/>
<path fill-rule="evenodd" clip-rule="evenodd" d="M199.99 217.104L204.294 214.106L209.897 215.025V213.985L206.293 212.691L206.182 211.386L205.563 212.945C202.473 213.161 201.327 214.388 199.99 216.065V217.104Z" fill="#6A4F65"/>
<path fill-rule="evenodd" clip-rule="evenodd" d="M217.327 242.575H218.566V236.856L216.468 234.37L216.089 234.777C216.864 237.569 217.327 237.218 217.327 241.015V242.575Z" fill="#D8D8D8"/>
<path fill-rule="evenodd" clip-rule="evenodd" d="M211.755 232.167C214.194 232.644 214.746 233.469 216.09 234.767L216.469 234.36L218.567 236.846L219.186 234.767L211.136 230.607L211.755 232.167Z" fill="#C47834"/>
<path fill-rule="evenodd" clip-rule="evenodd" d="M214.232 248.803H215.459L216.088 243.092H214.232V248.803Z" fill="#C47834"/>
<path fill-rule="evenodd" clip-rule="evenodd" d="M217.946 248.803C219.161 247.951 218.565 244.33 218.565 242.564H217.327C217.327 244.33 216.731 247.951 217.946 248.803Z" fill="#987157"/>
<path fill-rule="evenodd" clip-rule="evenodd" d="M206.18 222.815L209.858 221.694L209.897 220.746H208.657V219.69H207.42L205.459 222.384L206.18 222.815Z" fill="#CFDBE4"/>
<path fill-rule="evenodd" clip-rule="evenodd" d="M201.227 226.974L198.13 225.414V222.295C197.603 222.805 196.892 223.21 196.892 224.374C196.892 226.068 198.65 226.379 199.988 226.974H201.227Z" fill="#6294AA"/>
<path fill-rule="evenodd" clip-rule="evenodd" d="M202.466 226.457L201.847 224.897C199.666 223.67 200.822 223.447 198.751 222.818C199.489 225.477 200.001 225.361 202.466 226.457Z" fill="#9D5EA6"/>
<path fill-rule="evenodd" clip-rule="evenodd" d="M208.657 217.105L209.774 218.247L209.897 219.173L211.26 219.152L210.472 216.48L208.657 217.105Z" fill="#E8E8E8"/>
<path fill-rule="evenodd" clip-rule="evenodd" d="M232.807 127.681C232.611 133.104 235.372 139.161 242.875 137.474C236.799 136.928 235.923 130.977 237.141 127.161C239.283 119.442 245.81 119.702 245.81 108.965V100.128C248.51 100.178 248.907 100.467 248.907 102.727V105.326C248.907 107.853 244.598 116.793 244.466 118.338C244.354 119.72 244.556 121.101 245.191 122.482C245.742 123.207 246.292 123.931 246.842 124.655C245.83 116.68 246.756 118.648 250.89 113.75C252.491 111.731 255.649 107.293 255.099 103.766C254.658 100.477 254.217 97.1876 253.775 93.8982C256.156 96.9924 258.065 100.417 260.918 103.181C259.262 100.701 257.438 99.3337 256.443 96.3996C256.021 94.2904 256.337 89.5189 256.337 87.1304C257.565 89.5514 257.678 91.8093 261.291 91.8093H265.007C269.289 91.8093 273.685 91.7625 276.014 90.2453C276.482 90.1524 277.02 90.0097 277.391 90.2498C278.054 88.1667 279.868 87.5379 279.868 85.0509C279.868 77.0432 268.964 64.7756 260.053 64.7756H253.241C240.026 64.7756 231.568 70.9718 231.568 81.9315V82.9715C231.568 89.7787 234.735 91.7597 235.903 95.9684C233.201 96.5742 229.091 99.8509 229.091 102.727V104.806C229.091 107.439 232.064 112.973 233.891 113.665L234.664 117.803C234.962 119.367 232.807 124.05 232.807 127.681Z" fill="#BAD433"/>
<path fill-rule="evenodd" clip-rule="evenodd" d="M412.386 426.15V427.709C420.283 432.149 433.184 470.018 439.013 480.217C441.329 482.454 442.224 485.604 444.214 488.328C447.654 493.037 446.11 492.32 447.918 497.695C450.239 504.594 452.65 509.36 456.138 515.228C459.365 520.656 463.145 526.116 467.25 530.853C470.193 534.25 477.277 541.934 477.405 546.762C473.942 547.004 471.213 550.164 471.213 553V554.04C471.213 557.555 474.309 560.9 474.309 561.839V573.796C477.106 572.946 476.182 569.747 476.166 566.517C476.135 560.464 476.912 562.737 478.024 559.239H479.262C480.873 564.303 485.408 564.355 486.723 574.81C487.453 580.604 496.11 582.634 503.412 582.634H510.224C509.205 579.429 500.044 575.663 497.91 571.137C495.368 565.75 493.429 560.717 490.781 555.288C488.119 549.83 485.287 545.616 483.055 539.939C481.037 534.806 478.803 529.306 476.414 524.199C470.84 512.287 468.545 503.814 461.924 492.695C459.216 488.147 460.42 489.082 458.98 484.249C458.048 481.119 456.231 479.526 455.023 476.655C453.773 473.686 450.253 462.984 450.159 459.423L447.682 449.545L439.013 427.71L437.774 425.11C434.331 425.351 431.586 427.19 429.105 427.19H425.39L412.386 426.15L412.386 426.15Z" fill="#020202"/>
<path fill-rule="evenodd" clip-rule="evenodd" d="M362.85 418.888L363.469 422.007C365.981 422.182 372.212 423.899 374.688 424.545C382.171 426.496 380.893 425.316 386.38 424.086L407.434 425.646L412.388 426.166L425.392 427.206H429.107C431.588 427.206 434.333 425.367 437.776 425.126L440.253 422.527V422.007L439.015 410.05H437.157V412.129L433.221 403.355L436.538 402.771H432.822L428.488 391.334L424.772 393.413C423.529 394.076 416.909 395.493 414.865 395.493H408.053C391.053 395.493 381.283 390.503 370.28 385.615C365.166 391.794 362.849 407.763 362.849 418.886L362.85 418.888Z" fill="#963D97"/>
<path fill-rule="evenodd" clip-rule="evenodd" d="M386.386 424.081C380.898 425.311 382.177 426.491 374.694 424.539C372.218 423.893 365.987 422.177 363.475 422.001L365.952 477.108C366.172 481.009 363.475 484.062 363.475 487.506V501.023C363.475 507.806 364.896 513.555 366.1 519.614C366.595 522.106 370.589 534.735 370.564 536.922L365.952 568.608V570.167C365.952 573.053 369.596 577.446 373.382 577.446C376.872 577.446 381.432 574.143 381.432 571.207V569.647C381.432 564.138 380.208 558.586 380.209 551.439C380.21 545.598 377.098 542.172 377.098 534.295V525.977C377.098 516.627 378.382 509.311 378.33 499.979C378.277 490.695 380.542 483.994 382.299 475.758C383.615 469.585 384.56 456.725 384.522 450.072C384.478 442.448 386.386 432.263 386.386 424.084V424.081Z" fill="#050505"/>
<path fill-rule="evenodd" clip-rule="evenodd" d="M379.559 272.808V281.126C384.301 283.233 380.357 288.47 383.897 293.601C384.721 294.794 391.979 302.441 393.182 302.441L400.108 302.407L403.09 310.759C396.897 313.51 396.585 312.839 387.609 312.839C385.506 313.424 389.421 319.014 390.496 320.812C392.386 323.974 393.423 326.689 395.238 329.828C401.021 339.827 396.249 338.793 409.113 343.975C411.446 346.654 421.079 346.343 424.742 345.231C427.884 344.277 430.709 341.599 434.051 334.674C436.039 326.885 440.87 320.384 441.897 312.472C442.087 311.007 440.856 309.271 440.851 307.71L438.385 307.12H429.716C424.539 308.709 419.521 309.944 415.612 308.697C416.223 304.487 406.673 299.868 406.174 293.613C405.662 287.206 406.695 276.967 398.755 276.967H397.516C395.365 276.967 396.571 278.006 394.42 278.006H393.801C389.704 278.006 382.229 274.321 381.417 271.768L379.559 272.807V272.808Z" fill="#020202"/>
<path fill-rule="evenodd" clip-rule="evenodd" d="M439.003 480.237C433.173 470.037 420.273 432.168 412.376 427.729V426.169L407.422 425.649L394.418 472.438C397.402 473.107 398.47 477.381 398.753 480.237H439.003L439.003 480.237Z" fill="#75459B"/>
<path fill-rule="evenodd" clip-rule="evenodd" d="M372.757 350.772C372.757 365.077 372.079 365.767 366.347 375.544C364.323 378.995 358.178 394.692 358.791 399.108L359.612 416.397L362.849 418.878C362.849 407.754 365.166 391.785 370.28 385.607L371.518 384.047C372.413 381.234 379.203 375.282 381.051 370.215C382.168 367.153 382.897 354.155 383.284 350.255C376.33 346.88 372.892 343.923 372.757 350.775V350.772Z" fill="#050505"/>
<path fill-rule="evenodd" clip-rule="evenodd" d="M437.771 425.115L439.009 427.715L450.123 429.404L447.679 449.55L450.155 459.427L460.063 459.947L463.778 455.788L460.063 421.995H443.963V415.237L440.867 409.518L439.009 410.038C440.568 410.914 442.106 412.568 442.106 414.717V418.356C442.106 420.453 441.974 421.41 440.248 421.995V422.515L437.771 425.115V425.115Z" fill="#FDCB06"/>
<path fill-rule="evenodd" clip-rule="evenodd" d="M371.525 384.043C371.112 384.563 370.7 385.083 370.287 385.603C381.289 390.49 391.059 395.48 408.06 395.48H414.872C416.916 395.48 423.535 394.064 424.779 393.401C426.018 392.708 427.256 392.015 428.495 391.322V388.202H409.918C409.918 392.269 400.638 391.526 396.346 392.102C390.391 392.649 379.189 383.721 377.099 380.404C375.241 381.617 373.384 382.83 371.526 384.043H371.525Z" fill="#0A0A0A"/>
<path fill-rule="evenodd" clip-rule="evenodd" d="M447.678 449.552L450.116 429.403L439.003 427.723L447.678 449.552Z" fill="#6D4793"/>
<path fill-rule="evenodd" clip-rule="evenodd" d="M463.771 455.801L466.774 455.284L461.923 422.012H460.075L463.771 455.801Z" fill="#EAB724"/>
<path fill-rule="evenodd" clip-rule="evenodd" d="M379.559 272.808L381.417 271.768C382.229 274.322 389.704 278.007 393.801 278.007H394.42C396.571 278.007 395.365 276.967 397.516 276.967H398.755C406.695 276.967 405.662 287.207 406.174 293.613C406.673 299.869 416.223 304.488 415.612 308.697L414.855 313.359C413.136 315.633 411.759 320.62 411.759 324.276C411.759 328.126 416.929 332.594 421.047 332.594H426.001C427.389 332.594 427.36 332.183 428.478 331.555C429.634 330.105 430.336 329.362 430.336 326.876V325.836C430.336 324.388 427.726 322.197 426.001 322.197H424.762C422.881 322.197 422.66 323.099 422.285 324.276C423.068 323.929 424.333 323.237 425.382 323.237C426.047 323.237 427.858 324.757 427.858 325.836C427.858 327.048 426.206 328.436 424.762 328.436H423.524C420.105 328.436 420.428 324.61 420.428 321.677L425.382 314.399L429.716 307.12C429.792 304.276 430.955 303.455 430.955 300.362V298.802C430.955 292.088 421.047 291.244 421.047 285.805V284.246C421.047 282.622 425.382 278.124 425.382 273.328V269.689C425.382 261.36 416.132 254.612 405.566 254.612H400.613C393.681 254.612 389.166 256.16 385.289 258.903C383.764 259.982 377.701 269.244 377.701 270.209C377.701 271.602 378.583 272.208 379.559 272.808Z" fill="#C2752F"/>
<path fill-rule="evenodd" clip-rule="evenodd" d="M447.062 310.217C446.03 309.177 444.998 308.138 443.966 307.098H438.393C443.726 308.376 439.68 316.895 437.774 320.095V321.135C437.567 322.001 437.361 322.867 437.154 323.734C436.742 324.947 436.329 326.16 435.916 327.373C435.297 329.799 434.678 332.225 434.058 334.651C429.972 343.12 422.042 349.793 409.908 343.489C397.045 338.307 401.029 339.804 395.246 329.806C393.43 326.666 392.394 323.952 390.504 320.79C389.429 318.992 385.514 313.402 387.616 312.816C378.298 307.853 374.533 318.724 373.518 324.375C372.728 328.776 373 331.444 372.778 336.231C372.603 340.011 370.897 344.137 370.884 347.677C371.967 348.262 372.871 349.225 373.067 348.552C373.38 347.473 375.182 346.316 383.282 350.248C387.403 350.248 385.15 345.534 385.156 342.97C385.145 340.607 385.324 339.072 385.587 339.096C386.619 339.189 389.228 354.646 389.474 355.967V357.526C389.474 361.244 391.331 361.683 391.331 365.844V368.963L388.855 373.642C385.605 376.371 380.953 378.302 377.089 380.401C379.18 383.717 390.382 392.646 396.336 392.099C400.86 391.492 405.305 392.54 409.908 390.278C409.908 388.199 417.09 388.199 421.055 388.199H428.485C432.32 388.199 431.188 386.405 429.724 384.56C428.486 382.595 427.247 382.854 427.247 380.401V378.321L429.724 372.083L430.343 371.043L434.058 353.367L434.677 352.327C442.846 348.699 439.631 341.562 439.631 331.532C441.59 335.426 442.006 338.557 446.295 341.427C446.903 340.983 449.391 335.171 450.778 335.171C453.463 335.171 452.689 335.999 455.731 336.211C456.051 335.186 452.725 322.452 452.016 319.575C450.851 315.663 449.724 313.771 447.062 310.217Z" fill="#EC74AB"/>
<path fill-rule="evenodd" clip-rule="evenodd" d="M443.956 339.351C444.156 346.88 450.768 358.484 450.768 367.425C450.768 370.181 446.021 382.809 444.829 386.353C443.379 390.661 440.677 401.846 436.526 402.777L433.208 403.361L437.145 412.135V410.055H439.003L440.86 409.535L444.576 406.936C443.472 401.399 455.802 384.893 458.463 374.925C462.358 360.338 455.722 350.202 455.722 336.232C452.679 336.019 453.453 335.192 450.768 335.192C448.557 335.192 444.951 337.68 443.956 339.351V339.351Z" fill="#050505"/>
<path fill-rule="evenodd" clip-rule="evenodd" d="M449.526 323.75H452.632V321.142H449.526V323.75Z" fill="#31112A"/>
<path fill-rule="evenodd" clip-rule="evenodd" d="M418.572 375.725H421.678V373.139H418.572V375.725Z" fill="#31112A"/>
<path fill-rule="evenodd" clip-rule="evenodd" d="M449.526 327.391H452.632V324.784H449.526V327.391Z" fill="#4A1831"/>
<path fill-rule="evenodd" clip-rule="evenodd" d="M391.956 365.339H395.061V362.731H391.956V365.339Z" fill="#31112A"/>
<path fill-rule="evenodd" clip-rule="evenodd" d="M409.897 363.249V364.822H413.002V362.214H409.897V363.249Z" fill="#31112A"/>
<path fill-rule="evenodd" clip-rule="evenodd" d="M414.234 379.367H417.34V376.781H414.234V379.367Z" fill="#31112A"/>
<path fill-rule="evenodd" clip-rule="evenodd" d="M408.665 366.89V365.856H405.585V368.463H408.665V366.89Z" fill="#31112A"/>
<path fill-rule="evenodd" clip-rule="evenodd" d="M400.631 350.255H403.711V347.669H400.631V350.255Z" fill="#4A1831"/>
<path fill-rule="evenodd" clip-rule="evenodd" d="M414.234 368.463H417.34V365.856H414.234V368.463Z" fill="#31112A"/>
<path fill-rule="evenodd" clip-rule="evenodd" d="M387.618 374.691V376.243H390.724V373.657H388.85L388.131 374.088L387.618 374.691Z" fill="#31112A"/>
<path fill-rule="evenodd" clip-rule="evenodd" d="M416.724 349.737L417.34 347.13H414.234V349.737H416.724Z" fill="#31112A"/>
<path fill-rule="evenodd" clip-rule="evenodd" d="M448.294 311.79L447.062 310.217H445.214V312.824H448.294V311.79Z" fill="#4A1831"/>
<path fill-rule="evenodd" clip-rule="evenodd" d="M444.598 338.295L447.088 338.834L448.294 336.226H445.291L444.598 338.295Z" fill="#31112A"/>
<path fill-rule="evenodd" clip-rule="evenodd" d="M391.956 361.18H395.061V359.09H391.956V361.18Z" fill="#290D12"/>
<path fill-rule="evenodd" clip-rule="evenodd" d="M413.002 386.651V384.56H409.897V386.651H413.002Z" fill="#290D12"/>
<path fill-rule="evenodd" clip-rule="evenodd" d="M449.526 334.653H452.632V332.585H449.526V334.653Z" fill="#290D12"/>
<path fill-rule="evenodd" clip-rule="evenodd" d="M418.572 367.925H421.678V365.856H418.572V367.925Z" fill="#290D12"/>
<path fill-rule="evenodd" clip-rule="evenodd" d="M423.526 375.725H426.015V373.139H423.526V375.725Z" fill="#290D12"/>
<path fill-rule="evenodd" clip-rule="evenodd" d="M409.897 357.021H413.002V354.931H409.897V357.021Z" fill="#290D12"/>
<path fill-rule="evenodd" clip-rule="evenodd" d="M423.526 379.367H426.015V376.781H423.526V379.367Z" fill="#290D12"/>
<path fill-rule="evenodd" clip-rule="evenodd" d="M445.214 331.033H448.294V328.943H445.214V331.033Z" fill="#290D12"/>
<path fill-rule="evenodd" clip-rule="evenodd" d="M426.015 347.13H423.526V349.737H426.015V347.13Z" fill="#290D12"/>
<path fill-rule="evenodd" clip-rule="evenodd" d="M430.353 349.737V347.13H427.863V349.737H430.353Z" fill="#290D12"/>
<path fill-rule="evenodd" clip-rule="evenodd" d="M445.214 334.653H448.294V332.585H445.214V334.653Z" fill="#290D12"/>
<path fill-rule="evenodd" clip-rule="evenodd" d="M429.711 372.105L430.353 371.049V369.498H427.863V372.105H429.711Z" fill="#290D12"/>
<path fill-rule="evenodd" clip-rule="evenodd" d="M421.678 360.663V358.572H419.188L418.572 360.663H421.678Z" fill="#290D12"/>
<path fill-rule="evenodd" clip-rule="evenodd" d="M421.678 353.379V351.289H419.188L418.572 353.379H421.678Z" fill="#290D12"/>
<path fill-rule="evenodd" clip-rule="evenodd" d="M417.34 358.572L414.234 359.09V360.663H417.34V358.572Z" fill="#290D12"/>
<path fill-rule="evenodd" clip-rule="evenodd" d="M440.876 316.466H443.956V313.859H440.876V316.466Z" fill="#542B4C"/>
<path fill-rule="evenodd" clip-rule="evenodd" d="M401.247 361.18H403.711V359.09H401.247V361.18Z" fill="#150306"/>
<path fill-rule="evenodd" clip-rule="evenodd" d="M414.876 353.379H417.34V351.289H414.876V353.379Z" fill="#150306"/>
<path fill-rule="evenodd" clip-rule="evenodd" d="M417.34 386.651V384.56H414.876V386.651H417.34Z" fill="#0A0A0A"/>
<path fill-rule="evenodd" clip-rule="evenodd" d="M412.386 371.566H410.529V370.007H412.386V371.566ZM413.005 372.086V369.487H409.909V372.086H413.005Z" fill="#542B4C"/>
<path fill-rule="evenodd" clip-rule="evenodd" d="M417.34 383.009V380.94H414.876V383.009H417.34Z" fill="#100E11"/>
<path fill-rule="evenodd" clip-rule="evenodd" d="M414.876 364.304H417.34V362.214H414.876V364.304Z" fill="#150306"/>
<path fill-rule="evenodd" clip-rule="evenodd" d="M440.876 320.108H443.956V317.5H440.876V320.108Z" fill="#542B4C"/>
<path fill-rule="evenodd" clip-rule="evenodd" d="M408.049 375.208H406.191V373.648H408.049V375.208ZM405.572 375.728H408.668V373.128H405.572V375.728Z" fill="#542B4C"/>
<path fill-rule="evenodd" clip-rule="evenodd" d="M412.386 375.208H410.529V373.648H412.386V375.208ZM409.909 375.728H413.005V373.128H409.909V375.728Z" fill="#4E2836"/>
<path fill-rule="evenodd" clip-rule="evenodd" d="M416.724 371.566H414.866V370.007H416.724V371.566ZM414.247 372.086H417.343V369.487H414.247V372.086Z" fill="#542B4C"/>
<path fill-rule="evenodd" clip-rule="evenodd" d="M436.539 341.937H439.003V339.868H436.539V341.937Z" fill="#100E11"/>
<path fill-rule="evenodd" clip-rule="evenodd" d="M449.526 320.108L452.016 319.591L451.4 317.5H449.526V320.108Z" fill="#352C2E"/>
<path fill-rule="evenodd" clip-rule="evenodd" d="M432.201 339.868V341.937H434.691V339.868H432.201Z" fill="#0A0A0A"/>
<path fill-rule="evenodd" clip-rule="evenodd" d="M399.373 379.367V377.298H396.909V379.367H399.373Z" fill="#150306"/>
<path fill-rule="evenodd" clip-rule="evenodd" d="M423.526 364.304H426.015V362.214H423.526V364.304Z" fill="#0A0102"/>
<path fill-rule="evenodd" clip-rule="evenodd" d="M403.711 379.367V377.298H401.247V379.367H403.711Z" fill="#100E11"/>
<path fill-rule="evenodd" clip-rule="evenodd" d="M436.539 338.295H439.003V336.226H436.539V338.295Z" fill="#0A0A0A"/>
<path fill-rule="evenodd" clip-rule="evenodd" d="M419.188 379.367H421.678V377.298H419.188V379.367Z" fill="#100E11"/>
<path fill-rule="evenodd" clip-rule="evenodd" d="M436.539 334.653H439.003V332.585H436.539V334.653Z" fill="#150306"/>
<path fill-rule="evenodd" clip-rule="evenodd" d="M430.353 360.663V358.572H427.863V360.663H430.353Z" fill="#050505"/>
<path fill-rule="evenodd" clip-rule="evenodd" d="M399.373 383.009V380.94H396.909V383.009H399.373Z" fill="#150306"/>
<path fill-rule="evenodd" clip-rule="evenodd" d="M408.049 383.009V380.94H405.585V383.009H408.049Z" fill="#100E11"/>
<path fill-rule="evenodd" clip-rule="evenodd" d="M450.168 331.033H452.632V328.943H450.168V331.033Z" fill="#100E11"/>
<path fill-rule="evenodd" clip-rule="evenodd" d="M421.678 383.009V380.94H419.188V383.009H421.678Z" fill="#0A0A0A"/>
<path fill-rule="evenodd" clip-rule="evenodd" d="M426.015 383.009V380.94H423.526V383.009H426.015Z" fill="#0A0102"/>
<path fill-rule="evenodd" clip-rule="evenodd" d="M403.711 386.651V384.56H401.247V386.651H403.711Z" fill="#150306"/>
<path fill-rule="evenodd" clip-rule="evenodd" d="M440.876 331.033H443.34V328.943H440.876V331.033Z" fill="#150306"/>
<path fill-rule="evenodd" clip-rule="evenodd" d="M426.015 386.651V384.56H423.526V386.651H426.015Z" fill="#050505"/>
<path fill-rule="evenodd" clip-rule="evenodd" d="M436.539 331.033H439.003V328.943H436.539V331.033Z" fill="#0A0A0A"/>
<path fill-rule="evenodd" clip-rule="evenodd" d="M408.049 386.651V384.56H405.585V386.651H408.049Z" fill="#150306"/>
<path fill-rule="evenodd" clip-rule="evenodd" d="M421.678 386.651V384.56H419.188V386.651H421.678Z" fill="#0A0102"/>
<path fill-rule="evenodd" clip-rule="evenodd" d="M399.373 390.292V388.202H396.909V390.292H399.373Z" fill="#0A0102"/>
<path fill-rule="evenodd" clip-rule="evenodd" d="M440.876 327.391H443.34V325.301H440.876V327.391Z" fill="#100E11"/>
<path fill-rule="evenodd" clip-rule="evenodd" d="M430.353 365.856H427.863V367.925H430.353V365.856Z" fill="#0A0A0A"/>
<path fill-rule="evenodd" clip-rule="evenodd" d="M396.909 357.538H399.373V355.448H396.909V357.538Z" fill="#100E11"/>
<path fill-rule="evenodd" clip-rule="evenodd" d="M401.247 357.538H403.711V355.448H401.247V357.538Z" fill="#150306"/>
<path fill-rule="evenodd" clip-rule="evenodd" d="M426.015 357.021V354.931H423.526V357.021H426.015Z" fill="#050505"/>
<path fill-rule="evenodd" clip-rule="evenodd" d="M419.188 357.021H421.678V354.931H419.188V357.021Z" fill="#0A0102"/>
<path fill-rule="evenodd" clip-rule="evenodd" d="M427.863 357.021H430.353V354.931H427.863V357.021Z" fill="#0A0102"/>
<path fill-rule="evenodd" clip-rule="evenodd" d="M427.863 353.379H430.353V351.289H427.863V353.379Z" fill="#150306"/>
<path fill-rule="evenodd" clip-rule="evenodd" d="M432.201 349.737H434.691V347.669H432.201V349.737Z" fill="#150306"/>
<path fill-rule="evenodd" clip-rule="evenodd" d="M430.353 364.304V362.214H427.863V364.304H430.353Z" fill="#0A0102"/>
<path fill-rule="evenodd" clip-rule="evenodd" d="M405.585 364.304H408.049V362.214H405.585V364.304Z" fill="#150306"/>
<path fill-rule="evenodd" clip-rule="evenodd" d="M419.188 364.304H421.678V362.214H419.188V364.304Z" fill="#150306"/>
<path fill-rule="evenodd" clip-rule="evenodd" d="M432.201 345.579H434.691V343.488H432.201V345.579Z" fill="#100E11"/>
<path fill-rule="evenodd" clip-rule="evenodd" d="M410.538 366.373H412.396V367.933H410.538V366.373ZM409.919 366.893V368.453H413.015V365.853H409.919V366.893Z" fill="#542B4C"/>
<path fill-rule="evenodd" clip-rule="evenodd" d="M410.538 347.669H412.396V349.229H410.538V347.669ZM413.015 347.149H409.919V349.748H413.015V347.149Z" fill="#4E2836"/>
<path fill-rule="evenodd" clip-rule="evenodd" d="M445.83 321.659H447.688V323.219H445.83V321.659ZM445.211 323.739H448.307V321.14H445.211V323.739Z" fill="#542B4C"/>
<path fill-rule="evenodd" clip-rule="evenodd" d="M448.294 320.108V317.5H445.214V320.108H448.294Z" fill="#4E2836"/>
<path fill-rule="evenodd" clip-rule="evenodd" d="M434.049 353.379L434.691 352.345V351.289H432.201V353.379H434.049Z" fill="#100E11"/>
<path fill-rule="evenodd" clip-rule="evenodd" d="M425.399 365.856H423.526V367.925H426.015L425.399 365.856Z" fill="#0A0A0A"/>
<path fill-rule="evenodd" clip-rule="evenodd" d="M417.34 375.208V373.657H414.876V375.208H417.34Z" fill="#0A0A0A"/>
<path fill-rule="evenodd" clip-rule="evenodd" d="M445.83 327.391H447.678V325.301H445.83V327.391Z" fill="#050505"/>
<path fill-rule="evenodd" clip-rule="evenodd" d="M410.538 379.367H412.386V377.298H410.538V379.367Z" fill="#0A0A0A"/>
<path fill-rule="evenodd" clip-rule="evenodd" d="M442.108 334.136L443.956 334.653V332.585H441.492L442.108 334.136Z" fill="#352C2E"/>
<path fill-rule="evenodd" clip-rule="evenodd" d="M410.538 383.009H412.386V380.94H410.538V383.009Z" fill="#050505"/>
<path fill-rule="evenodd" clip-rule="evenodd" d="M391.956 372.105H394.42V370.532H391.956V372.105Z" fill="#100E11"/>
<path fill-rule="evenodd" clip-rule="evenodd" d="M421.678 371.566V370.015H419.188V371.566H421.678Z" fill="#0A0102"/>
<path fill-rule="evenodd" clip-rule="evenodd" d="M436.539 345.578H439.003V344.027H436.539V345.578Z" fill="#050505"/>
<path fill-rule="evenodd" clip-rule="evenodd" d="M409.897 381.457L410.538 383.009V380.94H412.386V383.009H413.002V380.423H409.897V381.457Z" fill="#6D324F"/>
<path fill-rule="evenodd" clip-rule="evenodd" d="M412.386 347.669H410.538V349.22H412.386V347.669Z" fill="#020202"/>
<path fill-rule="evenodd" clip-rule="evenodd" d="M410.538 375.208H412.386V373.657H410.538V375.208Z" fill="#020202"/>
<path fill-rule="evenodd" clip-rule="evenodd" d="M406.201 375.208H408.049V373.657H406.201V375.208Z" fill="#010105"/>
<path fill-rule="evenodd" clip-rule="evenodd" d="M414.876 371.566H416.724V370.015H414.876V371.566Z" fill="#010105"/>
<path fill-rule="evenodd" clip-rule="evenodd" d="M412.386 366.373H410.538V367.925H412.386V366.373Z" fill="#010105"/>
<path fill-rule="evenodd" clip-rule="evenodd" d="M447.678 321.659H445.83V323.232H447.678V321.659Z" fill="#020202"/>
<path fill-rule="evenodd" clip-rule="evenodd" d="M410.538 371.566H412.386V370.015H410.538V371.566Z" fill="#020202"/>
<path fill-rule="evenodd" clip-rule="evenodd" d="M391.956 372.105L395.061 372.622L395.036 369.95L391.956 370.532H394.42V372.105H391.956Z" fill="#542B4C"/>
<path fill-rule="evenodd" clip-rule="evenodd" d="M421.678 371.566H419.188V370.015H421.678L418.572 369.498L418.598 372.17L421.678 371.566Z" fill="#6D324F"/>
<path fill-rule="evenodd" clip-rule="evenodd" d="M410.538 379.367V377.298H412.386V379.367L413.002 376.781H409.82L410.538 379.367Z" fill="#542B4C"/>
<path fill-rule="evenodd" clip-rule="evenodd" d="M436.539 345.578L439.619 346.096V343.424L436.539 344.027H439.003V345.578H436.539Z" fill="#6D324F"/>
<path fill-rule="evenodd" clip-rule="evenodd" d="M445.83 327.391V325.301H447.678V327.391L448.294 324.784H445.111L445.83 327.391Z" fill="#6D324F"/>
<path fill-rule="evenodd" clip-rule="evenodd" d="M417.34 375.208H414.876V373.657H417.34L414.234 373.139L414.26 375.811L417.34 375.208Z" fill="#542B4C"/>
<path fill-rule="evenodd" clip-rule="evenodd" d="M389.466 357.538H390.724L390.672 355.383L389.466 355.987V357.538Z" fill="#31112A"/>
<path fill-rule="evenodd" clip-rule="evenodd" d="M423.526 372.062H426.015V369.476H423.526V372.062Z" fill="#290D12"/>
</svg>
